<?xml version="1.0" standalone="no"?>
<!DOCTYPE svg PUBLIC "-//W3C//DTD SVG 20010904//EN"
 "http://www.w3.org/TR/2001/REC-SVG-20010904/DTD/svg10.dtd">
<svg version="1.0" xmlns="http://www.w3.org/2000/svg"
 width="2357.000000pt" height="80.000000pt" viewBox="0 0 2357.000000 80.000000"
 preserveAspectRatio="xMidYMid meet">

<g transform="translate(0.000000,80.000000) scale(0.100000,-0.100000)"
fill="#000000" stroke="none">
<path d="M0 400 l0 -400 11785 0 11785 0 0 400 0 400 -11785 0 -11785 0 0
-400z m23540 0 l0 -370 -11755 0 -11755 0 0 370 0 370 11755 0 11755 0 0 -370z"/>
<path d="M21273 689 c-18 -12 -33 -24 -33 -28 0 -4 11 -18 25 -31 24 -22 26
-23 44 -6 11 10 31 16 48 14 22 -2 29 -9 31 -30 2 -20 -5 -32 -34 -54 -37 -29
-64 -76 -64 -114 0 -16 6 -20 34 -20 27 0 35 5 40 23 3 12 26 42 51 66 42 40
45 47 45 93 0 41 -5 54 -29 79 -25 24 -38 29 -78 29 -31 0 -59 -8 -80 -21z"/>
<path d="M20765 599 c-19 -17 -35 -38 -35 -45 0 -11 -8 -13 -33 -9 -41 8 -42
6 -147 -160 -77 -124 -81 -132 -77 -178 l4 -47 -73 0 c-67 0 -74 -2 -74 -20 0
-20 7 -20 600 -20 593 0 600 0 600 20 0 19 -7 20 -199 20 l-199 0 -12 68 c-6
37 -19 85 -29 107 -17 38 -66 95 -81 95 -4 0 -25 -18 -47 -39 -63 -63 -152
-68 -216 -11 l-33 28 -47 -83 c-50 -89 -71 -113 -82 -95 -3 5 25 64 63 129
l68 119 20 -35 c27 -51 89 -78 143 -63 107 29 132 173 39 230 -51 31 -110 27
-153 -11z m-57 -396 c-3 -36 -5 -38 -40 -41 -21 -2 -38 0 -38 4 0 11 62 74 73
74 4 0 7 -17 5 -37z"/>
<path d="M2844 453 c-9 -21 -34 -82 -54 -135 l-38 -98 29 0 c24 0 32 6 40 30
10 28 14 30 64 30 50 0 54 -2 64 -30 8 -24 16 -30 40 -30 17 0 31 3 30 8 0 4
-24 63 -52 132 -48 114 -54 125 -80 128 -24 3 -30 -2 -43 -35z m69 -125 c-2
-5 -15 -8 -28 -8 -33 0 -35 9 -17 54 l16 40 17 -40 c9 -21 14 -42 12 -46z"/>
<path d="M3860 465 c0 -20 5 -25 25 -25 20 0 25 5 25 25 0 20 -5 25 -25 25
-20 0 -25 -5 -25 -25z"/>
<path d="M4430 451 c0 -81 13 -161 26 -161 17 0 21 18 29 118 l7 82 -31 0
c-29 0 -31 -2 -31 -39z"/>
<path d="M4630 465 c0 -22 4 -25 40 -25 l40 0 0 -110 0 -110 30 0 30 0 0 110
0 110 40 0 c36 0 40 3 40 25 l0 25 -110 0 -110 0 0 -25z"/>
<path d="M4880 355 l0 -135 25 0 c24 0 25 3 25 56 0 59 10 88 34 97 29 12 46
-21 46 -89 0 -62 1 -64 25 -64 25 0 25 1 25 79 0 59 -4 84 -16 95 -22 22 -58
30 -82 17 -31 -16 -32 -15 -32 34 0 41 -2 45 -25 45 l-25 0 0 -135z"/>
<path d="M5110 465 c0 -20 5 -25 25 -25 20 0 25 5 25 25 0 20 -5 25 -25 25
-20 0 -25 -5 -25 -25z"/>
<path d="M5530 465 c0 -20 5 -25 25 -25 20 0 25 5 25 25 0 20 -5 25 -25 25
-20 0 -25 -5 -25 -25z"/>
<path d="M7632 478 c-7 -7 -12 -22 -12 -35 0 -13 -7 -26 -15 -29 -8 -4 -15
-15 -15 -25 0 -10 7 -19 15 -19 12 0 15 -15 15 -75 0 -73 1 -75 25 -75 24 0
25 2 25 75 0 68 2 75 20 75 13 0 20 7 20 20 0 13 -7 20 -20 20 -29 0 -27 38 2
42 13 2 24 11 26 21 3 14 -4 17 -35 17 -22 0 -44 -5 -51 -12z"/>
<path d="M7940 355 l0 -135 25 0 25 0 0 135 0 135 -25 0 -25 0 0 -135z"/>
<path d="M8050 355 l0 -135 25 0 25 0 0 135 0 135 -25 0 -25 0 0 -135z"/>
<path d="M9260 465 c0 -20 5 -25 25 -25 20 0 25 5 25 25 0 20 -5 25 -25 25
-20 0 -25 -5 -25 -25z"/>
<path d="M9490 445 c0 -49 -1 -50 -32 -34 -50 27 -108 -21 -108 -89 0 -90 58
-138 118 -96 12 8 22 10 22 5 0 -6 11 -11 25 -11 l25 0 0 135 0 135 -25 0
c-23 0 -25 -4 -25 -45z m-6 -109 c7 -30 -7 -71 -28 -79 -22 -9 -56 27 -56 58
0 36 35 68 59 55 10 -5 21 -21 25 -34z"/>
<path d="M9931 403 c-19 -48 -42 -109 -52 -135 l-19 -48 31 0 c24 0 32 6 40
30 10 28 14 30 63 30 48 0 52 -2 63 -30 9 -24 17 -30 42 -30 l31 0 -17 43
c-89 224 -88 222 -119 225 -28 3 -30 0 -63 -85z m89 -65 c0 -13 -8 -18 -31
-18 -33 0 -33 3 -6 70 l9 25 14 -30 c7 -16 13 -38 14 -47z"/>
<path d="M10160 355 l0 -135 25 0 c24 0 25 3 25 55 l0 55 55 0 c52 0 55 1 55
25 0 24 -3 25 -55 25 -54 0 -55 0 -55 30 l0 30 65 0 c63 0 65 1 65 25 0 25 -1
25 -90 25 l-90 0 0 -135z"/>
<path d="M10390 355 l0 -135 25 0 c25 0 25 1 26 88 l1 87 22 -85 c21 -81 23
-85 52 -88 30 -3 30 -2 48 75 27 117 35 120 36 16 0 -92 0 -93 25 -93 l25 0 0
135 0 135 -43 0 -43 0 -19 -72 c-10 -40 -21 -79 -25 -86 -4 -8 -16 24 -29 72
l-23 86 -39 0 -39 0 0 -135z"/>
<path d="M12030 465 c0 -20 5 -25 25 -25 20 0 25 5 25 25 0 20 -5 25 -25 25
-20 0 -25 -5 -25 -25z"/>
<path d="M12350 465 c0 -20 5 -25 25 -25 20 0 25 5 25 25 0 20 -5 25 -25 25
-20 0 -25 -5 -25 -25z"/>
<path d="M13120 355 l0 -135 25 0 c25 0 25 1 25 82 l0 83 51 -83 c45 -72 54
-82 80 -82 l29 0 0 135 0 135 -25 0 c-24 0 -24 -2 -27 -87 l-3 -88 -53 88
c-44 71 -58 87 -78 87 l-24 0 0 -135z"/>
<path d="M13720 355 l0 -135 25 0 25 0 0 135 0 135 -25 0 -25 0 0 -135z"/>
<path d="M13820 465 c0 -20 5 -25 25 -25 20 0 25 5 25 25 0 20 -5 25 -25 25
-20 0 -25 -5 -25 -25z"/>
<path d="M15910 465 c0 -20 5 -25 25 -25 20 0 25 5 25 25 0 20 -5 25 -25 25
-20 0 -25 -5 -25 -25z"/>
<path d="M16490 446 l0 -45 -28 10 c-91 32 -149 -105 -76 -178 21 -20 31 -24
57 -18 18 3 47 6 65 6 l32 -1 0 135 0 135 -25 0 c-23 0 -25 -4 -25 -44z m-18
-83 c22 -20 23 -70 1 -95 -9 -10 -20 -18 -24 -18 -18 0 -39 34 -39 65 0 30 20
65 37 65 4 0 15 -7 25 -17z"/>
<path d="M16722 477 c-6 -6 -13 -24 -17 -40 -4 -15 -11 -27 -16 -27 -5 0 -9
-9 -9 -20 0 -11 5 -20 10 -20 6 0 10 -32 10 -75 l0 -75 30 0 30 0 0 75 c0 60
3 75 15 75 8 0 15 9 15 20 0 11 -7 20 -15 20 -8 0 -15 9 -15 20 0 13 7 20 19
20 16 0 31 18 31 36 0 10 -79 3 -88 -9z"/>
<path d="M17430 355 l0 -135 25 0 c24 0 25 2 25 64 0 45 5 69 16 80 35 35 54
8 54 -76 0 -66 1 -68 25 -68 25 0 25 1 25 85 0 79 -2 86 -25 101 -24 16 -38
15 -77 -1 -16 -6 -18 -1 -18 39 0 42 -2 46 -25 46 l-25 0 0 -135z"/>
<path d="M17660 465 c0 -20 5 -25 25 -25 20 0 25 5 25 25 0 20 -5 25 -25 25
-20 0 -25 -5 -25 -25z"/>
<path d="M18610 465 c0 -21 5 -25 30 -25 25 0 30 4 30 25 0 21 -5 25 -30 25
-25 0 -30 -4 -30 -25z"/>
<path d="M18930 465 c0 -20 5 -25 25 -25 20 0 25 5 25 25 0 20 -5 25 -25 25
-20 0 -25 -5 -25 -25z"/>
<path d="M3073 465 c-13 -9 -23 -25 -23 -36 0 -10 -4 -19 -10 -19 -5 0 -10 -9
-10 -20 0 -11 5 -20 10 -20 6 0 10 -28 10 -64 0 -73 16 -99 59 -94 33 4 42 43
12 51 -18 4 -21 13 -21 56 0 44 3 51 20 51 26 0 27 36 1 43 -13 3 -21 15 -23
36 -3 31 -4 31 -25 16z"/>
<path d="M3203 467 c-13 -6 -23 -19 -23 -29 0 -10 -7 -21 -15 -24 -8 -4 -15
-15 -15 -25 0 -10 7 -19 15 -19 12 0 15 -14 15 -69 0 -77 11 -94 57 -89 35 4
45 37 14 45 -18 5 -21 13 -21 59 0 41 4 54 15 54 8 0 15 9 15 20 0 11 -6 20
-14 20 -9 0 -16 12 -18 34 -3 30 -5 32 -25 23z"/>
<path d="M3763 467 c-15 -6 -23 -19 -23 -34 0 -12 -4 -23 -10 -23 -5 0 -10 -9
-10 -20 0 -11 5 -20 10 -20 6 0 10 -30 10 -70 0 -60 3 -71 21 -80 31 -17 63
-9 67 18 3 17 -2 22 -17 22 -19 0 -21 6 -21 55 0 48 2 55 20 55 13 0 20 7 20
20 0 13 -7 20 -19 20 -15 0 -21 8 -23 34 -3 30 -5 32 -25 23z"/>
<path d="M6513 467 c-15 -6 -23 -19 -23 -34 0 -14 -6 -23 -15 -23 -8 0 -15 -9
-15 -20 0 -11 7 -20 15 -20 12 0 15 -14 15 -69 0 -77 11 -94 57 -89 35 4 48
48 14 48 -19 0 -21 6 -21 55 0 42 3 55 15 55 8 0 15 9 15 20 0 11 -6 20 -14
20 -9 0 -16 12 -18 34 -3 30 -5 32 -25 23z"/>
<path d="M7403 463 c-13 -8 -23 -24 -23 -34 0 -11 -4 -19 -10 -19 -5 0 -10 -9
-10 -20 0 -11 5 -20 10 -20 6 0 10 -28 10 -64 0 -73 16 -99 59 -94 30 3 45 48
17 48 -13 0 -16 12 -16 55 0 42 3 55 15 55 8 0 15 9 15 20 0 11 -7 20 -15 20
-10 0 -15 11 -15 35 0 39 -5 41 -37 18z"/>
<path d="M8943 463 c-13 -8 -23 -24 -23 -34 0 -11 -4 -19 -10 -19 -5 0 -10 -9
-10 -20 0 -11 5 -20 10 -20 6 0 10 -22 10 -49 0 -87 23 -120 74 -107 18 4 23
11 19 26 -3 11 -12 20 -19 20 -10 0 -14 15 -14 55 0 42 3 55 15 55 8 0 15 9
15 20 0 11 -7 20 -15 20 -10 0 -15 11 -15 35 0 39 -5 41 -37 18z"/>
<path d="M17323 463 c-13 -8 -23 -24 -23 -34 0 -11 -4 -19 -10 -19 -5 0 -10
-9 -10 -20 0 -11 5 -20 10 -20 6 0 10 -22 10 -49 0 -87 23 -120 74 -107 18 4
23 11 19 26 -3 11 -12 20 -19 20 -10 0 -14 15 -14 55 0 42 3 55 15 55 8 0 15
9 15 20 0 11 -7 20 -15 20 -10 0 -15 11 -15 35 0 39 -5 41 -37 18z"/>
<path d="M18513 463 c-13 -9 -23 -24 -23 -34 0 -11 -4 -19 -10 -19 -5 0 -10
-9 -10 -20 0 -11 5 -20 10 -20 6 0 10 -28 10 -64 0 -73 16 -99 59 -94 33 4 42
43 12 51 -18 4 -21 13 -21 56 0 44 3 51 20 51 26 0 27 36 1 43 -13 3 -21 15
-23 35 -3 28 -4 29 -25 15z"/>
<path d="M19053 463 c-13 -8 -23 -24 -23 -34 0 -11 -4 -19 -10 -19 -5 0 -10
-9 -10 -20 0 -11 4 -20 9 -20 5 0 11 -32 13 -71 4 -76 14 -91 58 -87 29 3 44
48 16 48 -13 0 -16 12 -16 55 0 42 3 55 15 55 8 0 15 9 15 20 0 11 -7 20 -15
20 -10 0 -15 11 -15 35 0 39 -5 41 -37 18z"/>
<path d="M3328 405 c-37 -20 -54 -76 -39 -125 14 -47 30 -60 78 -67 29 -4 44
0 66 17 32 26 34 36 6 45 -13 4 -27 0 -40 -11 -23 -20 -51 -10 -57 20 -3 13 7
16 62 16 36 0 66 3 66 8 0 4 -5 24 -11 45 -8 30 -18 42 -44 53 -42 17 -53 17
-87 -1z m82 -60 c0 -10 -11 -15 -35 -15 -38 0 -48 22 -18 39 21 11 53 -3 53
-24z"/>
<path d="M3578 404 c-16 -8 -28 -10 -28 -4 0 5 -9 10 -20 10 -19 0 -20 -7 -20
-95 0 -95 0 -95 25 -95 24 0 25 2 25 64 0 45 5 69 16 80 35 35 54 8 54 -76 0
-66 1 -68 25 -68 25 0 25 1 25 84 0 76 -2 86 -22 100 -28 20 -45 20 -80 0z"/>
<path d="M4020 413 c-55 -20 -81 -86 -57 -145 27 -64 123 -76 167 -21 22 28
27 91 9 125 -17 32 -82 55 -119 41z m71 -67 c25 -54 -17 -110 -59 -80 -25 17
-30 72 -10 92 21 21 57 14 69 -12z"/>
<path d="M4268 406 c-16 -8 -28 -11 -28 -5 0 5 -11 9 -25 9 -25 0 -25 0 -25
-95 l0 -95 30 0 30 0 0 70 c0 56 3 71 18 79 11 6 24 6 35 0 14 -8 17 -24 17
-79 0 -68 1 -70 25 -70 25 0 25 1 25 84 0 55 -4 87 -13 94 -23 19 -62 23 -89
8z"/>
<path d="M5243 410 c-12 -5 -27 -19 -33 -31 -20 -36 1 -66 57 -82 28 -8 48
-20 48 -28 0 -20 -39 -23 -55 -4 -14 17 -46 20 -55 4 -10 -15 23 -47 56 -54
68 -15 128 27 115 80 -5 19 -17 28 -61 40 -30 9 -57 20 -60 25 -9 14 33 22 54
11 23 -13 61 -15 61 -3 0 16 -17 31 -43 41 -33 13 -54 13 -84 1z"/>
<path d="M5703 405 c-13 -9 -23 -11 -23 -6 0 6 -11 11 -25 11 -25 0 -25 0 -25
-95 0 -95 0 -95 25 -95 24 0 25 3 25 60 0 46 4 64 20 80 38 38 60 7 60 -87 0
-50 2 -53 25 -53 25 0 25 1 25 78 0 47 -5 85 -12 95 -19 25 -69 31 -95 12z"/>
<path d="M6098 405 c-37 -20 -54 -76 -39 -125 14 -47 30 -60 78 -67 29 -4 44
0 66 17 32 26 34 36 6 45 -13 4 -27 0 -40 -11 -23 -20 -51 -10 -57 20 -3 13 7
16 62 16 l66 0 -6 28 c-10 48 -26 71 -57 82 -38 13 -46 12 -79 -5z m82 -60 c0
-10 -11 -15 -35 -15 -38 0 -48 22 -18 39 21 11 53 -3 53 -24z"/>
<path d="M6300 408 c-20 -11 -25 -21 -25 -53 0 -40 0 -40 58 -59 32 -10 56
-24 54 -30 -6 -17 -52 -19 -67 -2 -15 18 -46 21 -56 5 -12 -19 32 -51 77 -56
56 -6 99 23 99 67 0 32 -27 51 -87 65 -18 3 -33 11 -33 16 0 16 32 23 51 11
41 -26 81 -3 46 26 -22 18 -90 24 -117 10z"/>
<path d="M6685 410 c-11 -4 -32 -5 -47 -3 l-28 6 0 -97 c0 -96 0 -96 25 -96
24 0 25 2 25 70 0 56 3 71 18 78 34 18 42 4 42 -74 l0 -74 30 0 30 0 0 70 c0
57 3 71 18 79 30 16 42 -7 42 -81 0 -66 1 -68 25 -68 l26 0 -3 87 c-3 84 -4
88 -31 103 -25 14 -30 13 -58 -2 -27 -16 -33 -16 -52 -3 -24 17 -33 17 -62 5z"/>
<path d="M6984 410 c-49 -20 -69 -95 -43 -154 24 -51 121 -59 154 -13 14 21
14 22 -11 31 -21 7 -29 5 -36 -8 -5 -9 -15 -16 -22 -16 -13 0 -46 31 -46 43 0
4 30 7 66 7 l67 0 -6 37 c-4 20 -14 45 -24 55 -22 21 -70 31 -99 18z m58 -47
c26 -24 22 -33 -15 -33 -43 0 -51 9 -30 32 20 22 22 22 45 1z"/>
<path d="M7228 406 c-16 -8 -28 -11 -28 -5 0 5 -11 9 -25 9 -25 0 -25 0 -25
-95 0 -95 0 -95 25 -95 23 0 25 3 25 49 0 58 12 96 34 104 29 12 46 -21 46
-89 0 -62 1 -64 25 -64 25 0 25 1 25 78 0 47 -5 85 -12 95 -19 24 -59 29 -90
13z"/>
<path d="M7768 409 c-31 -12 -44 -39 -26 -51 17 -10 38 -10 38 1 0 13 27 21
45 15 30 -12 15 -34 -27 -40 -72 -12 -100 -62 -57 -105 16 -16 28 -20 52 -14
18 3 48 6 68 5 l36 0 -5 82 c-2 46 -10 89 -16 96 -17 17 -75 24 -108 11z m62
-144 c-16 -19 -34 -19 -49 -1 -13 16 1 31 34 38 24 4 32 -17 15 -37z"/>
<path d="M8177 409 c-30 -12 -46 -52 -30 -78 5 -9 32 -23 59 -33 27 -9 49 -22
49 -30 0 -20 -40 -22 -59 -3 -11 11 -25 15 -42 11 -20 -5 -23 -10 -15 -25 23
-42 124 -53 159 -17 17 17 19 61 3 80 -7 8 -34 20 -61 26 -28 7 -50 16 -50 21
0 16 32 23 51 11 22 -14 69 -16 69 -4 0 34 -83 60 -133 41z"/>
<path d="M8514 410 c-32 -13 -64 -59 -64 -92 0 -70 56 -117 124 -104 46 9 76
47 76 98 0 52 -15 77 -55 94 -39 16 -51 16 -81 4z m77 -64 c25 -54 -17 -110
-59 -80 -25 17 -30 72 -10 92 21 21 57 14 69 -12z"/>
<path d="M9070 408 c-20 -11 -25 -21 -25 -53 0 -40 0 -40 58 -59 32 -10 56
-24 54 -30 -6 -17 -52 -19 -67 -2 -15 18 -46 21 -56 5 -12 -19 32 -51 77 -56
56 -6 99 23 99 67 0 32 -27 51 -87 65 -18 3 -33 11 -33 16 0 16 32 23 51 11
41 -26 81 -3 46 26 -22 18 -90 24 -117 10z"/>
<path d="M9618 405 c-37 -20 -54 -76 -39 -125 14 -47 30 -60 78 -67 29 -4 44
0 66 17 32 26 34 36 6 45 -13 4 -27 0 -40 -11 -23 -20 -51 -10 -57 20 -3 13 7
16 62 16 l66 0 -6 28 c-10 48 -26 71 -57 82 -38 13 -46 12 -79 -5z m82 -60 c0
-10 -11 -15 -35 -15 -38 0 -48 22 -18 39 21 11 53 -3 53 -24z"/>
<path d="M10840 413 c-46 -17 -65 -68 -35 -93 8 -6 34 -18 57 -25 24 -7 43
-18 43 -26 0 -20 -40 -23 -58 -5 -28 28 -64 16 -51 -17 16 -42 124 -46 157 -6
35 44 17 73 -62 99 -25 8 -44 20 -41 25 5 10 24 10 78 -1 17 -3 32 -2 32 2 -1
36 -73 64 -120 47z"/>
<path d="M11321 411 c-8 -5 -29 -7 -48 -4 l-33 6 0 -137 0 -136 25 0 c23 0 25
4 25 45 0 42 11 58 25 35 12 -20 57 -10 86 19 24 24 29 38 29 76 0 38 -5 52
-29 76 -30 30 -55 36 -80 20z m49 -67 c22 -58 -22 -112 -60 -74 -36 36 -19
100 26 100 17 0 27 -8 34 -26z"/>
<path d="M11503 405 c-24 -10 -34 -23 -43 -53 -27 -103 66 -182 144 -121 31
25 33 36 5 44 -13 4 -27 1 -39 -10 -15 -13 -23 -14 -39 -5 -12 6 -21 17 -21
25 0 12 15 15 65 15 36 0 65 3 65 8 0 4 -5 24 -11 45 -8 30 -18 42 -44 53 -41
17 -42 17 -82 -1z m77 -60 c0 -10 -11 -15 -35 -15 -38 0 -48 22 -18 39 21 11
53 -3 53 -24z"/>
<path d="M11746 411 c-4 -6 -20 -8 -36 -4 l-30 6 0 -97 c0 -96 0 -96 25 -96
24 0 25 2 25 64 0 65 14 93 42 84 7 -3 18 2 24 10 8 11 18 -5 44 -72 30 -79
35 -86 60 -86 24 0 30 8 59 83 18 45 35 88 38 95 3 8 -5 12 -24 12 -26 0 -31
-5 -48 -55 -10 -30 -21 -55 -25 -55 -3 0 -14 25 -25 55 -17 51 -21 55 -49 55
-17 0 -41 3 -52 6 -12 3 -25 1 -28 -5z"/>
<path d="M12160 408 c-20 -11 -25 -21 -25 -53 0 -40 0 -40 58 -59 32 -10 56
-24 54 -30 -6 -17 -52 -19 -67 -2 -15 18 -46 21 -56 5 -12 -19 32 -51 77 -56
35 -4 50 0 72 17 52 41 30 91 -49 111 -25 7 -43 17 -41 23 4 11 18 11 75 0 25
-5 32 -3 32 9 0 8 -6 19 -13 25 -22 18 -90 24 -117 10z"/>
<path d="M12493 406 c-39 -18 -53 -43 -53 -94 0 -51 30 -89 76 -98 99 -18 164
92 97 166 -33 36 -76 45 -120 26z m77 -51 c33 -40 -8 -117 -51 -95 -43 24 -32
110 15 110 13 0 29 -7 36 -15z"/>
<path d="M12761 411 c-8 -5 -29 -7 -48 -4 l-33 6 0 -97 c0 -96 0 -96 25 -96
24 0 25 2 25 64 0 55 3 67 22 80 35 25 48 4 48 -75 l0 -69 31 0 32 0 -5 82
c-4 69 -8 84 -28 100 -24 20 -47 23 -69 9z"/>
<path d="M13435 411 c-64 -27 -81 -120 -31 -169 21 -21 36 -27 72 -27 38 0 50
5 70 28 33 38 33 106 2 141 -25 27 -81 41 -113 27z m74 -55 c18 -22 9 -77 -14
-92 -18 -12 -24 -11 -43 2 -25 17 -30 72 -10 92 16 16 53 15 67 -2z"/>
<path d="M13980 413 c-8 -3 -25 -15 -37 -26 -31 -28 -33 -117 -3 -147 38 -38
102 -38 141 1 11 11 18 26 16 32 -6 19 -46 21 -53 3 -7 -19 -45 -21 -62 -4 -7
7 -12 26 -12 43 0 17 5 36 12 43 15 15 58 16 58 2 0 -5 13 -10 30 -10 28 0 29
1 18 25 -15 33 -69 52 -108 38z"/>
<path d="M14170 408 c-32 -17 -50 -53 -50 -101 0 -84 99 -129 158 -70 l26 26
-22 10 c-17 8 -27 6 -43 -9 -22 -20 -51 -11 -57 20 -3 13 6 16 57 16 61 0 61
0 61 29 0 62 -75 107 -130 79z m80 -63 c0 -10 -11 -15 -35 -15 -38 0 -48 22
-18 39 21 11 53 -3 53 -24z"/>
<path d="M14418 406 c-16 -8 -28 -11 -28 -5 0 5 -11 9 -25 9 -25 0 -25 0 -25
-95 l0 -95 30 0 30 0 0 70 c0 56 3 71 18 79 11 6 24 6 35 0 14 -8 17 -24 17
-79 0 -68 1 -70 25 -70 25 0 25 1 25 84 0 55 -4 87 -13 94 -23 19 -62 23 -89
8z"/>
<path d="M14601 407 c-63 -32 -50 -88 26 -110 28 -8 48 -20 48 -28 0 -20 -39
-23 -55 -4 -7 8 -21 15 -31 15 -32 0 -34 -22 -4 -48 24 -20 36 -23 74 -19 30
3 51 12 63 27 36 45 18 74 -61 100 -25 8 -44 20 -41 25 5 10 24 10 78 -1 48
-10 40 26 -11 45 -36 14 -56 14 -86 -2z"/>
<path d="M14824 410 c-35 -14 -54 -50 -54 -102 0 -34 6 -54 20 -68 39 -39 102
-38 140 2 l21 23 -27 9 c-21 7 -29 5 -36 -8 -11 -20 -32 -21 -52 0 -28 27 -18
34 49 34 59 0 65 2 65 20 0 34 -29 80 -56 90 -30 12 -42 12 -70 0z m54 -42
c23 -23 13 -38 -23 -38 -38 0 -44 10 -19 34 19 19 26 20 42 4z"/>
<path d="M15166 413 c-4 -4 -22 -6 -41 -5 l-35 3 0 -96 c0 -95 0 -95 25 -95
23 0 25 4 26 43 2 79 12 102 41 100 19 -1 28 4 32 20 7 28 -28 50 -48 30z"/>
<path d="M15281 409 c-37 -15 -50 -39 -51 -94 0 -62 19 -92 65 -101 59 -11
130 34 93 58 -17 10 -38 10 -38 -1 0 -15 -30 -21 -51 -11 -10 6 -19 17 -19 25
0 12 15 15 65 15 71 0 73 3 54 60 -8 22 -22 37 -45 46 -38 16 -41 16 -73 3z
m69 -64 c0 -10 -11 -15 -35 -15 -38 0 -44 10 -19 34 18 18 54 5 54 -19z"/>
<path d="M15469 391 c-71 -72 -9 -211 77 -172 35 15 34 16 34 -34 0 -41 2 -45
25 -45 l25 0 0 135 0 135 -25 0 c-14 0 -25 -5 -25 -11 0 -5 -10 -3 -22 5 -33
23 -56 20 -89 -13z m106 -50 c9 -28 -5 -70 -26 -81 -24 -13 -59 19 -59 55 0
36 35 68 60 55 10 -5 21 -19 25 -29z"/>
<path d="M16087 413 c-4 -4 -23 -6 -42 -5 l-35 3 0 -96 c0 -95 0 -95 25 -95
24 0 25 3 25 56 0 68 13 96 43 92 18 -2 22 2 22 22 0 24 -23 38 -38 23z"/>
<path d="M16189 405 c-84 -46 -49 -195 45 -195 32 0 86 32 86 50 0 19 -42 22
-61 4 -23 -20 -51 -10 -57 20 -3 13 6 16 57 16 61 0 61 0 61 29 0 63 -76 107
-131 76z m81 -60 c0 -10 -11 -15 -35 -15 -38 0 -48 22 -18 39 21 11 53 -3 53
-24z"/>
<path d="M16865 406 c-72 -31 -72 -151 0 -184 35 -16 60 -15 95 3 37 19 50 43
50 90 0 49 -15 74 -55 91 -41 17 -51 17 -90 0z m89 -68 c13 -38 -6 -78 -38
-78 -29 0 -48 22 -48 55 0 58 68 76 86 23z"/>
<path d="M17126 413 c-4 -4 -22 -6 -41 -5 l-35 3 0 -96 c0 -95 0 -95 25 -95
23 0 25 3 25 49 0 69 15 105 41 98 14 -4 23 1 28 16 11 29 -22 51 -43 30z"/>
<path d="M17790 409 c-29 -12 -40 -27 -40 -55 0 -28 26 -50 78 -64 48 -12 52
-33 9 -38 -18 -2 -29 2 -33 12 -6 16 -45 22 -57 10 -11 -11 5 -35 34 -49 36
-19 72 -19 109 0 24 13 30 22 30 49 0 41 -11 51 -73 66 -26 7 -47 16 -47 22 0
16 31 21 54 8 13 -6 33 -10 46 -8 22 3 22 3 4 26 -22 26 -77 37 -114 21z"/>
<path d="M18113 413 c-13 -2 -30 -14 -38 -26 -14 -20 -13 -22 6 -29 13 -5 29
-2 43 7 25 17 56 11 56 -10 0 -7 -17 -16 -37 -20 -57 -10 -83 -31 -83 -65 0
-38 38 -65 78 -55 15 4 43 6 62 6 l35 -1 -3 82 c-2 47 -9 89 -16 96 -14 14
-69 23 -103 15z m56 -149 c-16 -19 -53 -14 -57 8 -4 22 61 43 66 21 2 -8 -2
-21 -9 -29z"/>
<path d="M18324 411 c-34 -15 -54 -52 -54 -99 0 -35 6 -49 30 -74 27 -27 36
-30 73 -25 42 6 77 34 77 63 0 21 -37 17 -60 -6 -25 -25 -54 -13 -64 26 -14
55 27 101 61 67 18 -18 63 -20 63 -3 0 38 -80 70 -126 51z"/>
<path d="M3860 315 c0 -95 0 -95 25 -95 25 0 25 0 25 95 0 95 0 95 -25 95 -25
0 -25 0 -25 -95z"/>
<path d="M5110 315 c0 -95 0 -95 25 -95 25 0 25 0 25 95 0 95 0 95 -25 95 -25
0 -25 0 -25 -95z"/>
<path d="M5530 315 c0 -95 0 -95 25 -95 25 0 25 0 25 95 0 95 0 95 -25 95 -25
0 -25 0 -25 -95z"/>
<path d="M5840 403 c0 -5 15 -47 34 -94 31 -77 36 -84 62 -84 25 0 30 7 65 93
l38 92 -29 0 c-25 0 -30 -6 -50 -61 l-23 -61 -22 58 c-18 50 -26 60 -48 62
-15 2 -27 -1 -27 -5z"/>
<path d="M8690 330 c0 -67 3 -83 20 -100 24 -24 57 -26 88 -4 12 8 22 10 22 5
0 -6 11 -11 25 -11 25 0 25 0 25 95 0 95 0 95 -25 95 -24 0 -25 -3 -25 -58 0
-60 -19 -102 -45 -102 -23 0 -35 34 -35 99 0 58 -1 61 -25 61 -25 0 -25 -1
-25 -80z"/>
<path d="M9260 315 c0 -95 0 -95 25 -95 25 0 25 0 25 95 0 95 0 95 -25 95 -25
0 -25 0 -25 -95z"/>
<path d="M11010 330 c0 -68 3 -83 21 -101 16 -16 28 -20 52 -14 18 3 49 6 70
5 l37 0 0 95 c0 95 0 95 -25 95 -23 0 -25 -3 -25 -49 0 -59 -14 -99 -36 -108
-28 -10 -44 25 -44 94 0 61 -1 63 -25 63 -25 0 -25 -1 -25 -80z"/>
<path d="M12030 315 c0 -95 0 -95 25 -95 25 0 25 0 25 95 0 95 0 95 -25 95
-25 0 -25 0 -25 -95z"/>
<path d="M12350 315 c0 -95 0 -95 25 -95 25 0 25 0 25 95 0 95 0 95 -25 95
-25 0 -25 0 -25 -95z"/>
<path d="M13820 315 c0 -95 0 -95 25 -95 25 0 25 0 25 95 0 95 0 95 -25 95
-25 0 -25 0 -25 -95z"/>
<path d="M15680 325 c0 -79 2 -86 25 -101 17 -11 34 -14 53 -9 15 4 42 6 60 6
l32 -1 0 95 c0 95 0 95 -25 95 -24 0 -25 -2 -25 -70 0 -60 -3 -71 -21 -80 -35
-19 -49 3 -49 81 0 67 -1 69 -25 69 -25 0 -25 -1 -25 -85z"/>
<path d="M15910 315 c0 -95 0 -95 25 -95 25 0 25 0 25 95 0 95 0 95 -25 95
-25 0 -25 0 -25 -95z"/>
<path d="M17660 315 c0 -95 0 -95 25 -95 25 0 25 0 25 95 0 95 0 95 -25 95
-25 0 -25 0 -25 -95z"/>
<path d="M18610 315 l0 -95 30 0 30 0 0 95 0 95 -30 0 -30 0 0 -95z"/>
<path d="M18700 403 c0 -5 15 -47 34 -94 31 -77 36 -84 62 -84 26 0 31 6 61
84 18 47 33 88 33 93 0 4 -11 8 -24 8 -21 0 -28 -9 -47 -61 l-23 -62 -22 59
c-18 49 -26 60 -48 62 -14 2 -26 -1 -26 -5z"/>
<path d="M18930 315 c0 -95 0 -95 25 -95 25 0 25 0 25 95 0 95 0 95 -25 95
-25 0 -25 0 -25 -95z"/>
<path d="M19157 343 c53 -139 54 -163 9 -163 -19 0 -23 -4 -19 -20 7 -26 63
-28 85 -2 12 13 98 231 98 248 0 2 -13 4 -28 4 -27 0 -30 -5 -46 -62 -9 -34
-21 -57 -25 -52 -5 5 -16 33 -26 62 -15 47 -20 52 -45 52 l-29 0 26 -67z"/>
<path d="M21277 369 c-29 -17 -49 -68 -43 -105 12 -60 83 -92 139 -62 34 18
46 40 47 85 0 34 -5 46 -31 67 -32 27 -80 34 -112 15z m81 -38 c3 -8 0 -11 -6
-7 -13 7 -42 -3 -42 -15 0 -5 12 -10 28 -10 l27 -2 -30 -5 -30 -5 30 -7 30 -8
-28 -1 c-18 -1 -27 -6 -24 -13 2 -7 14 -13 26 -12 12 0 20 -4 18 -10 -13 -39
-90 13 -82 56 9 45 71 75 83 39z"/>
<path d="M4430 245 c0 -20 5 -25 25 -25 20 0 25 5 25 25 0 20 -5 25 -25 25
-20 0 -25 -5 -25 -25z"/>
<path d="M12910 245 c0 -20 5 -25 25 -25 20 0 25 5 25 25 0 20 -5 25 -25 25
-20 0 -25 -5 -25 -25z"/>
<path d="M19340 245 c0 -20 5 -25 25 -25 20 0 25 5 25 25 0 20 -5 25 -25 25
-20 0 -25 -5 -25 -25z"/>
</g>
</svg>
